<svg width="32" height="32" viewBox="0 0 32 32" fill="none" xmlns="http://www.w3.org/2000/svg">
<rect width="32" height="32" rx="8" fill="#1952CE"/>
<path fill-rule="evenodd" clip-rule="evenodd" d="M15.9998 6.83301C15.3997 6.83301 15.0313 7.27167 14.7919 7.64957C14.5462 8.03734 14.2926 8.59592 13.9917 9.25886L13.9917 9.25887C13.8749 9.51626 13.7615 9.77658 13.648 10.0373C13.3837 10.6441 13.1185 11.2531 12.8063 11.8327C12.5681 12.2749 12.1474 12.5272 11.6345 12.3451C11.4411 12.2765 11.1977 12.1688 10.8301 12.0054C10.7417 11.9661 10.6494 11.9223 10.5541 11.877C10.0487 11.6368 9.46014 11.3571 8.9272 11.5096C8.40321 11.6595 8.0303 12.0949 7.90786 12.6041C7.83346 12.9136 7.89833 13.231 7.97436 13.5043C8.05295 13.7868 8.18086 14.1408 8.33512 14.5677L8.33513 14.5677L8.33513 14.5677L9.74539 18.4707L9.74539 18.4707L9.74539 18.4707C10.0329 19.2665 10.265 19.9089 10.5055 20.4074C10.9971 21.427 11.7724 22.0495 12.9081 22.187C13.4256 22.2497 14.0603 22.2497 14.832 22.2497H17.1677C17.9393 22.2497 18.5741 22.2497 19.0916 22.187C20.2273 22.0495 21.0026 21.427 21.4942 20.4074C21.7347 19.9088 21.9668 19.2665 22.2543 18.4706L23.6646 14.5676C23.8188 14.1407 23.9467 13.7868 24.0253 13.5043C24.1014 13.231 24.1662 12.9136 24.0918 12.6041C23.9694 12.0949 23.5965 11.6595 23.0725 11.5096C22.5449 11.3586 21.9584 11.6358 21.4579 11.8723C21.3676 11.915 21.2801 11.9563 21.1962 11.9936C21.145 12.0163 21.0939 12.0393 21.0427 12.0624C20.8195 12.1627 20.5956 12.2634 20.3652 12.3451C19.8523 12.5272 19.4316 12.2749 19.1934 11.8327C18.8812 11.2531 18.616 10.6441 18.3517 10.0373C18.2382 9.77657 18.1248 9.51624 18.0079 9.25884C17.707 8.59591 17.4535 8.03734 17.2078 7.64957C16.9684 7.27167 16.6 6.83301 15.9998 6.83301ZM15.9992 16.833C15.3119 16.833 14.7548 17.3927 14.7548 18.083C14.7548 18.7734 15.3119 19.333 15.9992 19.333H16.0104C16.6976 19.333 17.2548 18.7734 17.2548 18.083C17.2548 17.3927 16.6976 16.833 16.0104 16.833H15.9992Z" fill="white"/>
<path fill-rule="evenodd" clip-rule="evenodd" d="M10.9998 24.3333C10.9998 23.8731 11.3729 23.5 11.8332 23.5H20.1665C20.6267 23.5 20.9998 23.8731 20.9998 24.3333C20.9998 24.7936 20.6267 25.1667 20.1665 25.1667H11.8332C11.3729 25.1667 10.9998 24.7936 10.9998 24.3333Z" fill="white"/>
</svg>
