<svg width="23" height="23" viewBox="0 0 23 23" fill="none" xmlns="http://www.w3.org/2000/svg">
<path d="M4.29864 12.5762C4.23741 13.7395 4.3078 14.9778 3.26844 15.7573C2.7847 16.1201 2.5 16.6895 2.5 17.2942C2.5 18.126 3.1515 18.8337 4 18.8337H16C16.8485 18.8337 17.5 18.126 17.5 17.2942C17.5 16.6895 17.2153 16.1201 16.7316 15.7573C15.6922 14.9778 15.7626 13.7395 15.7014 12.5762C15.5418 9.54385 13.0365 7.16699 10 7.16699C6.96348 7.16699 4.45824 9.54385 4.29864 12.5762Z" stroke="#797A7A" stroke-width="1.5" stroke-linecap="round" stroke-linejoin="round"/>
<path d="M8.75 5.60449C8.75 6.29485 9.30964 7.16699 10 7.16699C10.6904 7.16699 11.25 6.29485 11.25 5.60449C11.25 4.91414 10.6904 4.66699 10 4.66699C9.30964 4.66699 8.75 4.91414 8.75 5.60449Z" stroke="#797A7A" stroke-width="1.5"/>
<path d="M12.5 18.834C12.5 20.2147 11.3807 21.334 10 21.334C8.61929 21.334 7.5 20.2147 7.5 18.834" stroke="#797A7A" stroke-width="1.5" stroke-linecap="round" stroke-linejoin="round"/>
<circle cx="18.5" cy="4.5" r="4.5" fill="#00764B"/>
</svg>
