<svg width="20" height="20" viewBox="0 0 20 20" fill="none" xmlns="http://www.w3.org/2000/svg">
<g clip-path="url(#clip0_82_9529)">
<path d="M15.8334 1.66699H17.5C17.9603 1.66699 18.3334 2.04009 18.3334 2.50033V4.16699M17.5 2.50033C10.8821 7.82646 7.45179 9.26111 1.66669 10.0003M15 8.33366V16.667C15 17.5875 15.7462 18.3337 16.6667 18.3337C17.5872 18.3337 18.3334 17.5875 18.3334 16.667V8.33366C18.3334 7.41318 17.5872 6.66699 16.6667 6.66699C15.7462 6.66699 15 7.41318 15 8.33366ZM1.66669 15.0003L1.66669 16.667C1.66669 17.5875 2.41288 18.3337 3.33335 18.3337C4.25383 18.3337 5.00002 17.5875 5.00002 16.667L5.00002 15.0003C5.00002 14.0799 4.25383 13.3337 3.33335 13.3337C2.41288 13.3337 1.66669 14.0799 1.66669 15.0003ZM8.33335 11.667V16.667C8.33335 17.5875 9.07955 18.3337 10 18.3337C10.9205 18.3337 11.6667 17.5875 11.6667 16.667V11.667C11.6667 10.7465 10.9205 10.0003 10 10.0003C9.07955 10.0003 8.33335 10.7465 8.33335 11.667Z" stroke="#A5A4A1" stroke-width="1.5" stroke-linecap="round" stroke-linejoin="round"/>
</g>
<defs>
<clipPath id="clip0_82_9529">
<rect width="20" height="20" fill="white"/>
</clipPath>
</defs>
</svg>
