<svg width="20" height="20" viewBox="0 0 20 20" fill="none" xmlns="http://www.w3.org/2000/svg">
<g id="credit-card">
<g id="elements">
<path id="Vector" d="M1.66669 9.99967C1.66669 7.05177 1.66669 5.57782 2.54402 4.59376C2.68434 4.43636 2.839 4.2908 3.00623 4.15873C4.0518 3.33301 5.61787 3.33301 8.75002 3.33301H11.25C14.3822 3.33301 15.9482 3.33301 16.9938 4.15873C17.161 4.2908 17.3157 4.43636 17.456 4.59376C18.3334 5.57782 18.3334 7.05177 18.3334 9.99967C18.3334 12.9476 18.3334 14.4215 17.456 15.4056C17.3157 15.563 17.161 15.7085 16.9938 15.8406C15.9482 16.6663 14.3822 16.6663 11.25 16.6663H8.75002C5.61787 16.6663 4.0518 16.6663 3.00623 15.8406C2.839 15.7085 2.68434 15.563 2.54402 15.4056C1.66669 14.4215 1.66669 12.9476 1.66669 9.99967Z" stroke="#A5A4A1" stroke-width="1.5" stroke-linecap="round" stroke-linejoin="round"/>
<path id="Vector_2" d="M8.33337 13.333H9.58337" stroke="#A5A4A1" stroke-width="1.5" stroke-miterlimit="10" stroke-linecap="round" stroke-linejoin="round"/>
<path id="Vector_3" d="M12.0834 13.333L15 13.333" stroke="#A5A4A1" stroke-width="1.5" stroke-miterlimit="10" stroke-linecap="round" stroke-linejoin="round"/>
<path id="Vector 4043" d="M1.66669 7.5H18.3334" stroke="#A5A4A1" stroke-width="1.5" stroke-linejoin="round"/>
</g>
</g>
</svg>
