<svg width="20" height="20" viewBox="0 0 20 20" fill="none" xmlns="http://www.w3.org/2000/svg">
<path d="M2.08331 9.99967C2.08331 6.26772 2.08331 4.40175 3.24268 3.24238C4.40205 2.08301 6.26803 2.08301 9.99998 2.08301C13.7319 2.08301 15.5979 2.08301 16.7573 3.24238C17.9166 4.40175 17.9166 6.26772 17.9166 9.99967C17.9166 13.7316 17.9166 15.5976 16.7573 16.757C15.5979 17.9163 13.7319 17.9163 9.99998 17.9163C6.26803 17.9163 4.40205 17.9163 3.24268 16.757C2.08331 15.5976 2.08331 13.7316 2.08331 9.99967Z" stroke="#A5A4A1" stroke-width="1.5"/>
<path d="M2.08331 7.5H17.9166" stroke="#A5A4A1" stroke-width="1.5" stroke-linejoin="round"/>
<path d="M5.83321 5H5.8407" stroke="#A5A4A1" stroke-width="2" stroke-linecap="round" stroke-linejoin="round"/>
<path d="M9.16647 5H9.17395" stroke="#A5A4A1" stroke-width="2" stroke-linecap="round" stroke-linejoin="round"/>
<path d="M14.1667 14.1667C14.1667 11.8655 12.3012 10 10 10C7.69885 10 5.83337 11.8655 5.83337 14.1667" stroke="#A5A4A1" stroke-width="1.5" stroke-linecap="round"/>
<path d="M10.5891 12.7441L9.4106 13.9227" stroke="#A5A4A1" stroke-width="1.5" stroke-linecap="round" stroke-linejoin="round"/>
</svg>
