<svg width="20" height="20" viewBox="0 0 20 20" fill="none" xmlns="http://www.w3.org/2000/svg">
<g id="global" clip-path="url(#clip0_82_9549)">
<g id="elements">
<path id="Ellipse 1591" d="M18.3334 10.0007C18.3334 5.39828 14.6024 1.66732 10 1.66732C5.39765 1.66732 1.66669 5.39828 1.66669 10.0007C1.66669 14.603 5.39765 18.334 10 18.334C14.6024 18.334 18.3334 14.603 18.3334 10.0007Z" stroke="#A5A4A1" stroke-width="1.5"/>
<path id="Vector" d="M16.6667 4.74948C15.8878 4.80562 14.8901 5.10719 14.1983 6.00264C12.9488 7.62 11.6992 7.75496 10.8662 7.21584C9.61667 6.40716 10.6667 5.0973 9.20015 4.38545C8.24432 3.92151 8.11105 2.65904 8.64303 1.66699" stroke="#A5A4A1" stroke-width="1.5" stroke-linejoin="round"/>
<path id="Vector_2" d="M1.66669 9.16699C2.3021 9.71876 3.19207 10.2238 4.24064 10.2238C6.40705 10.2238 6.84033 10.6378 6.84033 12.2935C6.84033 13.9492 6.84033 13.9492 7.27361 15.191C7.55544 15.9988 7.65396 16.8065 7.09219 17.5003" stroke="#A5A4A1" stroke-width="1.5" stroke-linejoin="round"/>
<path id="Vector_3" d="M18.3334 11.2109C17.5942 10.7849 16.6667 10.6096 15.7279 11.2844C13.9315 12.5755 12.6929 11.5057 12.135 12.5748C11.3138 14.1486 14.2465 14.6432 11.6667 18.334" stroke="#A5A4A1" stroke-width="1.5" stroke-linejoin="round"/>
</g>
</g>
<defs>
<clipPath id="clip0_82_9549">
<rect width="20" height="20" fill="white"/>
</clipPath>
</defs>
</svg>
