<svg width="20" height="20" viewBox="0 0 20 20" fill="none" xmlns="http://www.w3.org/2000/svg">
<g id="invoice-01">
<g id="elements">
<path id="Vector" d="M3.33337 15.5385V6.71221C3.33337 4.33387 3.33337 3.1447 4.06561 2.40585C4.79784 1.66699 5.97635 1.66699 8.33337 1.66699H11.6667C14.0237 1.66699 15.2022 1.66699 15.9345 2.40585C16.6667 3.1447 16.6667 4.33387 16.6667 6.71221V15.5385C16.6667 16.7982 16.6667 17.4281 16.2817 17.676C15.6526 18.0812 14.6801 17.2315 14.191 16.9231C13.7868 16.6682 13.5848 16.5407 13.3605 16.5334C13.1181 16.5254 12.9125 16.6476 12.4758 16.9231L10.8834 17.9273C10.4538 18.1982 10.239 18.3337 10 18.3337C9.76105 18.3337 9.54626 18.1982 9.11671 17.9273L7.52431 16.9231C7.12016 16.6682 6.91809 16.5407 6.69382 16.5334C6.45147 16.5254 6.24581 16.6476 5.8091 16.9231C5.32 17.2315 4.34744 18.0812 3.71834 17.676C3.33337 17.4281 3.33337 16.7982 3.33337 15.5385Z" stroke="#A5A4A1" stroke-width="1.5" stroke-linecap="round" stroke-linejoin="round"/>
<path id="Vector 4000" d="M9.16675 9.16699H6.66675" stroke="#A5A4A1" stroke-width="1.5" stroke-linecap="round" stroke-linejoin="round"/>
<path id="Vector 3999" d="M11.6667 5.83398L6.66675 5.83398" stroke="#A5A4A1" stroke-width="1.5" stroke-linecap="round" stroke-linejoin="round"/>
</g>
</g>
</svg>
