<svg width="20" height="20" viewBox="0 0 20 20" fill="none" xmlns="http://www.w3.org/2000/svg">
<path d="M3.33337 8.33301V13.7636C3.33337 14.5212 3.76138 15.2137 4.43895 15.5525L9.10561 17.8858C9.66867 18.1673 10.3314 18.1673 10.8945 17.8858L15.5611 15.5525C16.2387 15.2137 16.6667 14.5212 16.6667 13.7636V8.33301" stroke="#1766E2" stroke-width="1.5"/>
<path d="M16.6667 5.00033L10.8945 2.11421C10.3314 1.83268 9.66867 1.83268 9.10561 2.11421L3.33337 5.00033L10 8.33366L16.6667 5.00033Z" stroke="#1766E2" stroke-width="1.5" stroke-linecap="round" stroke-linejoin="round"/>
<path d="M16.6667 5L10 8.33333L11.6667 10.8333L18.3333 7.5L16.6667 5Z" stroke="#1766E2" stroke-width="1.5" stroke-linecap="round" stroke-linejoin="round"/>
<path d="M3.33333 5L10 8.33333L8.33333 10.8333L1.66667 7.5L3.33333 5Z" stroke="#1766E2" stroke-width="1.5" stroke-linecap="round" stroke-linejoin="round"/>
</svg>
