<svg width="20" height="20" viewBox="0 0 20 20" fill="none" xmlns="http://www.w3.org/2000/svg">
<g clip-path="url(#clip0_82_9526)">
<path d="M4.24996 14.167C4.24996 14.5812 4.58575 14.917 4.99996 14.917C5.41417 14.917 5.74996 14.5812 5.74996 14.167H4.24996ZM17.6011 2.39923L18.1314 1.8689V1.86889L17.6011 2.39923ZM13.5018 15.8208L14.2333 15.6553L13.5018 15.8208ZM1.81049 15.8208L1.07898 15.9863L1.81049 15.8208ZM1.82868 14.48L2.41402 14.9489L1.82868 14.48ZM9.99996 2.41699H13.3333V0.916992H9.99996V2.41699ZM17.5833 6.66699V15.0003H19.0833V6.66699H17.5833ZM5.74996 14.167V6.66699H4.24996V14.167H5.74996ZM9.99996 0.916992C8.84265 0.916992 7.89922 0.915399 7.15684 1.01521C6.39289 1.11792 5.73056 1.3402 5.20186 1.8689L6.26252 2.92956C6.46606 2.72602 6.7591 2.58218 7.35672 2.50183C7.97591 2.41859 8.80025 2.41699 9.99996 2.41699V0.916992ZM5.74996 6.66699C5.74996 5.46728 5.75155 4.64294 5.8348 4.02375C5.91515 3.42613 6.05898 3.1331 6.26252 2.92956L5.20186 1.8689C4.67317 2.39759 4.45089 3.05993 4.34818 3.82388C4.24837 4.56625 4.24996 5.50968 4.24996 6.66699H5.74996ZM13.3333 2.41699C14.533 2.41699 15.3573 2.41859 15.9765 2.50183C16.5742 2.58218 16.8672 2.72602 17.0707 2.92956L18.1314 1.86889C17.6027 1.3402 16.9404 1.11792 16.1764 1.01521C15.434 0.915399 14.4906 0.916992 13.3333 0.916992V2.41699ZM19.0833 6.66699C19.0833 5.50968 19.0849 4.56625 18.9851 3.82388C18.8824 3.05993 18.6601 2.39759 18.1314 1.8689L17.0707 2.92956C17.2743 3.1331 17.4181 3.42613 17.4985 4.02375C17.5817 4.64294 17.5833 5.46728 17.5833 6.66699H19.0833ZM17.5833 15.0003C17.5833 15.8518 17.4271 16.5165 17.1454 16.946C16.8955 17.3268 16.5112 17.5837 15.828 17.5837V19.0837C16.9897 19.0837 17.858 18.5943 18.3996 17.7687C18.9093 16.9917 19.0833 15.9898 19.0833 15.0003H17.5833ZM15.828 17.5837C15.4314 17.5837 15.1268 17.419 14.8659 17.1025C14.5874 16.7647 14.3702 16.2604 14.2333 15.6553L12.7703 15.9863C12.9364 16.7207 13.2272 17.4729 13.7085 18.0567C14.2073 18.6617 14.9143 19.0837 15.828 19.0837V17.5837ZM4.13671 17.5837C3.74006 17.5837 3.4355 17.419 3.17456 17.1025C2.89608 16.7647 2.67891 16.2604 2.542 15.6553L1.07898 15.9863C1.24513 16.7207 1.5359 17.4729 2.01719 18.0567C2.516 18.6617 3.22303 19.0837 4.13671 19.0837V17.5837ZM4.13671 19.0837H15.828V17.5837H4.13671V19.0837ZM3.30162 14.917H11.6525V13.417H3.30162V14.917ZM2.542 15.6553C2.50237 15.4802 2.47181 15.3446 2.44968 15.2273C2.42757 15.11 2.41875 15.0352 2.41696 14.9844C2.41529 14.9371 2.42052 14.9275 2.41772 14.937C2.41377 14.9504 2.40785 14.9566 2.41402 14.9489L1.24334 14.0111C0.984249 14.3345 0.905479 14.6849 0.917892 15.0372C0.928368 15.3345 1.00777 15.6716 1.07898 15.9863L2.542 15.6553ZM3.30162 13.417C2.92034 13.417 2.54121 13.4146 2.23048 13.4663C1.87913 13.5248 1.52003 13.6657 1.24334 14.0111L2.41402 14.9489C2.41416 14.9487 2.41337 14.9497 2.41159 14.9515C2.4098 14.9533 2.40743 14.9555 2.40457 14.9579C2.39834 14.963 2.39313 14.966 2.39114 14.967C2.38858 14.9683 2.40896 14.9572 2.47677 14.9459C2.63613 14.9194 2.8681 14.917 3.30162 14.917V13.417ZM14.2333 15.6553C14.1394 15.2404 14.0582 14.8778 13.9678 14.5996C13.8813 14.3334 13.7444 13.9986 13.4492 13.7631L12.5138 14.9357C12.4473 14.8827 12.4733 14.8539 12.5412 15.063C12.6052 15.26 12.6697 15.5419 12.7703 15.9863L14.2333 15.6553ZM11.6525 14.917C12.0363 14.917 12.2637 14.918 12.4261 14.9355C12.5808 14.9521 12.5625 14.9746 12.5138 14.9357L13.4492 13.7631C13.1718 13.5418 12.8558 13.4731 12.5866 13.4441C12.3251 13.416 12.0023 13.417 11.6525 13.417V14.917Z" fill="#A5A4A1"/>
<path d="M8.75 5.83398H14.5833" stroke="#A5A4A1" stroke-width="1.5" stroke-linecap="round"/>
<path d="M8.75 9.16699H11.6667" stroke="#A5A4A1" stroke-width="1.5" stroke-linecap="round"/>
</g>
<defs>
<clipPath id="clip0_82_9526">
<rect width="20" height="20" fill="white"/>
</clipPath>
</defs>
</svg>
