<svg width="20" height="20" viewBox="0 0 20 20" fill="none" xmlns="http://www.w3.org/2000/svg">
<g id="setting-01">
<g id="elements">
<path id="Vector" d="M17.7645 5.95084L17.3532 5.237C17.0421 4.69714 16.8866 4.42721 16.622 4.31958C16.3573 4.21194 16.058 4.29687 15.4594 4.46674L14.4425 4.75316C14.0604 4.84129 13.6594 4.79129 13.3104 4.612L13.0297 4.45002C12.7305 4.25837 12.5003 3.97579 12.3729 3.64363L12.0946 2.81247C11.9116 2.26246 11.8201 1.98745 11.6023 1.83015C11.3845 1.67285 11.0952 1.67285 10.5166 1.67285H9.58759C9.00896 1.67285 8.71965 1.67285 8.50183 1.83015C8.28402 1.98745 8.19253 2.26246 8.00955 2.81247L7.73126 3.64363C7.60385 3.97579 7.37369 4.25837 7.07445 4.45002L6.79372 4.612C6.44476 4.79129 6.0438 4.84129 5.66163 4.75316L4.64477 4.46674C4.04616 4.29687 3.74685 4.21194 3.4822 4.31958C3.21756 4.42721 3.06202 4.69714 2.75094 5.237L2.33962 5.95084C2.04803 6.45688 1.90223 6.7099 1.93053 6.97925C1.95882 7.2486 2.154 7.46566 2.54436 7.89977L3.40356 8.86036C3.61356 9.12621 3.76265 9.58952 3.76265 10.006C3.76265 10.4229 3.61361 10.886 3.40359 11.1519L2.54437 12.1125C2.15401 12.5466 1.95883 12.7637 1.93053 13.0331C1.90223 13.3024 2.04803 13.5554 2.33962 14.0615L2.75093 14.7753C3.062 15.3151 3.21756 15.5851 3.4822 15.6927C3.74686 15.8004 4.04617 15.7154 4.64478 15.5455L5.6616 15.2591C6.04384 15.171 6.44487 15.221 6.79387 15.4003L7.07456 15.5623C7.37374 15.754 7.60385 16.0365 7.73123 16.3687L8.00955 17.1999C8.19253 17.7499 8.28402 18.0249 8.50183 18.1822C8.71965 18.3395 9.00896 18.3395 9.58759 18.3395H10.5166C11.0952 18.3395 11.3845 18.3395 11.6023 18.1822C11.8201 18.0249 11.9116 17.7499 12.0946 17.1999L12.3729 16.3687C12.5003 16.0365 12.7304 15.754 13.0296 15.5623L13.3103 15.4003C13.6593 15.221 14.0603 15.171 14.4426 15.2591L15.4594 15.5455C16.058 15.7154 16.3573 15.8004 16.622 15.6927C16.8866 15.5851 17.0422 15.3151 17.3532 14.7753L17.3532 14.7753L17.7645 14.0615C18.0561 13.5554 18.2019 13.3024 18.1736 13.0331C18.1453 12.7637 17.9502 12.5466 17.5598 12.1125L16.7006 11.1519C16.4906 10.886 16.3415 10.4229 16.3415 10.006C16.3415 9.58952 16.4906 9.12621 16.7006 8.86036L17.5598 7.89977C17.9502 7.46566 18.1453 7.2486 18.1736 6.97925C18.2019 6.7099 18.0561 6.45688 17.7645 5.95084Z" stroke="#A5A4A1" stroke-width="1.5" stroke-linecap="round"/>
<path id="Ellipse 1200" d="M12.9329 9.99967C12.9329 11.6105 11.6271 12.9163 10.0163 12.9163C8.40545 12.9163 7.09961 11.6105 7.09961 9.99967C7.09961 8.38884 8.40545 7.08301 10.0163 7.08301C11.6271 7.08301 12.9329 8.38884 12.9329 9.99967Z" stroke="#A5A4A1" stroke-width="1.5"/>
</g>
</g>
</svg>
